%TF.GenerationSoftware,KiCad,Pcbnew,7.0.6-0*%
%TF.CreationDate,2023-08-22T23:51:49+02:00*%
%TF.ProjectId,tannenbaum,74616e6e-656e-4626-9175-6d2e6b696361,2.0*%
%TF.SameCoordinates,Original*%
%TF.FileFunction,Legend,Top*%
%TF.FilePolarity,Positive*%
%FSLAX46Y46*%
G04 Gerber Fmt 4.6, Leading zero omitted, Abs format (unit mm)*
G04 Created by KiCad (PCBNEW 7.0.6-0) date 2023-08-22 23:51:49*
%MOMM*%
%LPD*%
G01*
G04 APERTURE LIST*
%ADD10C,0.150000*%
%ADD11C,0.100000*%
G04 APERTURE END LIST*
D10*
X39526785Y-109151009D02*
X39669642Y-109198628D01*
X39669642Y-109198628D02*
X39717261Y-109246247D01*
X39717261Y-109246247D02*
X39764880Y-109341485D01*
X39764880Y-109341485D02*
X39764880Y-109484342D01*
X39764880Y-109484342D02*
X39717261Y-109579580D01*
X39717261Y-109579580D02*
X39669642Y-109627200D01*
X39669642Y-109627200D02*
X39574404Y-109674819D01*
X39574404Y-109674819D02*
X39193452Y-109674819D01*
X39193452Y-109674819D02*
X39193452Y-108674819D01*
X39193452Y-108674819D02*
X39526785Y-108674819D01*
X39526785Y-108674819D02*
X39622023Y-108722438D01*
X39622023Y-108722438D02*
X39669642Y-108770057D01*
X39669642Y-108770057D02*
X39717261Y-108865295D01*
X39717261Y-108865295D02*
X39717261Y-108960533D01*
X39717261Y-108960533D02*
X39669642Y-109055771D01*
X39669642Y-109055771D02*
X39622023Y-109103390D01*
X39622023Y-109103390D02*
X39526785Y-109151009D01*
X39526785Y-109151009D02*
X39193452Y-109151009D01*
X40050595Y-108674819D02*
X40622023Y-108674819D01*
X40336309Y-109674819D02*
X40336309Y-108674819D01*
X41479166Y-109674819D02*
X40907738Y-109674819D01*
X41193452Y-109674819D02*
X41193452Y-108674819D01*
X41193452Y-108674819D02*
X41098214Y-108817676D01*
X41098214Y-108817676D02*
X41002976Y-108912914D01*
X41002976Y-108912914D02*
X40907738Y-108960533D01*
X97564167Y-99801533D02*
X98630834Y-99801533D01*
X97564167Y-85831533D02*
X98630834Y-85831533D01*
X98097500Y-86364866D02*
X98097500Y-85298200D01*
%TO.C,D19*%
D11*
X220345000Y-101219000D02*
X219837000Y-100965000D01*
X220853000Y-100965000D01*
X220345000Y-101219000D01*
G36*
X220345000Y-101219000D02*
G01*
X219837000Y-100965000D01*
X220853000Y-100965000D01*
X220345000Y-101219000D01*
G37*
%TO.C,D18*%
X187325000Y-76756500D02*
X186817000Y-76502500D01*
X187833000Y-76502500D01*
X187325000Y-76756500D01*
G36*
X187325000Y-76756500D02*
G01*
X186817000Y-76502500D01*
X187833000Y-76502500D01*
X187325000Y-76756500D01*
G37*
%TO.C,D17*%
X175133000Y-111125000D02*
X174117000Y-111125000D01*
X174625000Y-110871000D01*
X175133000Y-111125000D01*
G36*
X175133000Y-111125000D02*
G01*
X174117000Y-111125000D01*
X174625000Y-110871000D01*
X175133000Y-111125000D01*
G37*
%TO.C,D16*%
X149098000Y-76200000D02*
X148082000Y-76200000D01*
X148590000Y-75946000D01*
X149098000Y-76200000D01*
G36*
X149098000Y-76200000D02*
G01*
X148082000Y-76200000D01*
X148590000Y-75946000D01*
X149098000Y-76200000D01*
G37*
%TO.C,D15*%
X147193000Y-112395000D02*
X146177000Y-112395000D01*
X146685000Y-112141000D01*
X147193000Y-112395000D01*
G36*
X147193000Y-112395000D02*
G01*
X146177000Y-112395000D01*
X146685000Y-112141000D01*
X147193000Y-112395000D01*
G37*
%TO.C,D14*%
X123825000Y-106299000D02*
X123317000Y-106045000D01*
X124333000Y-106045000D01*
X123825000Y-106299000D01*
G36*
X123825000Y-106299000D02*
G01*
X123317000Y-106045000D01*
X124333000Y-106045000D01*
X123825000Y-106299000D01*
G37*
%TO.C,D13*%
X88265000Y-109806500D02*
X87757000Y-109552500D01*
X88773000Y-109552500D01*
X88265000Y-109806500D01*
G36*
X88265000Y-109806500D02*
G01*
X87757000Y-109552500D01*
X88773000Y-109552500D01*
X88265000Y-109806500D01*
G37*
%TO.C,D7*%
X121920000Y-123776500D02*
X121412000Y-123522500D01*
X122428000Y-123522500D01*
X121920000Y-123776500D01*
G36*
X121920000Y-123776500D02*
G01*
X121412000Y-123522500D01*
X122428000Y-123522500D01*
X121920000Y-123776500D01*
G37*
%TO.C,D9*%
X185928000Y-104775000D02*
X184912000Y-104775000D01*
X185420000Y-104521000D01*
X185928000Y-104775000D01*
G36*
X185928000Y-104775000D02*
G01*
X184912000Y-104775000D01*
X185420000Y-104521000D01*
X185928000Y-104775000D01*
G37*
%TO.C,D4*%
X178435000Y-84406500D02*
X177927000Y-84152500D01*
X178943000Y-84152500D01*
X178435000Y-84406500D01*
G36*
X178435000Y-84406500D02*
G01*
X177927000Y-84152500D01*
X178943000Y-84152500D01*
X178435000Y-84406500D01*
G37*
%TO.C,D12*%
X90805000Y-87249000D02*
X90297000Y-86995000D01*
X91313000Y-86995000D01*
X90805000Y-87249000D01*
G36*
X90805000Y-87249000D02*
G01*
X90297000Y-86995000D01*
X91313000Y-86995000D01*
X90805000Y-87249000D01*
G37*
%TO.C,D8*%
X227330000Y-92964000D02*
X226822000Y-92710000D01*
X227838000Y-92710000D01*
X227330000Y-92964000D01*
G36*
X227330000Y-92964000D02*
G01*
X226822000Y-92710000D01*
X227838000Y-92710000D01*
X227330000Y-92964000D01*
G37*
%TO.C,D11*%
X85725000Y-57404000D02*
X85217000Y-57150000D01*
X86233000Y-57150000D01*
X85725000Y-57404000D01*
G36*
X85725000Y-57404000D02*
G01*
X85217000Y-57150000D01*
X86233000Y-57150000D01*
X85725000Y-57404000D01*
G37*
%TO.C,D2*%
X67945000Y-28496500D02*
X67437000Y-28242500D01*
X68453000Y-28242500D01*
X67945000Y-28496500D01*
G36*
X67945000Y-28496500D02*
G01*
X67437000Y-28242500D01*
X68453000Y-28242500D01*
X67945000Y-28496500D01*
G37*
%TO.C,D5*%
X84963000Y-128270000D02*
X83947000Y-128270000D01*
X84455000Y-128016000D01*
X84963000Y-128270000D01*
G36*
X84963000Y-128270000D02*
G01*
X83947000Y-128270000D01*
X84455000Y-128016000D01*
X84963000Y-128270000D01*
G37*
%TO.C,D6*%
X106680000Y-87551500D02*
X106172000Y-87297500D01*
X107188000Y-87297500D01*
X106680000Y-87551500D01*
G36*
X106680000Y-87551500D02*
G01*
X106172000Y-87297500D01*
X107188000Y-87297500D01*
X106680000Y-87551500D01*
G37*
%TO.C,D10*%
X163195000Y-98044000D02*
X162687000Y-97790000D01*
X163703000Y-97790000D01*
X163195000Y-98044000D01*
G36*
X163195000Y-98044000D02*
G01*
X162687000Y-97790000D01*
X163703000Y-97790000D01*
X163195000Y-98044000D01*
G37*
%TO.C,D3*%
X129540000Y-69771500D02*
X129032000Y-69517500D01*
X130048000Y-69517500D01*
X129540000Y-69771500D01*
G36*
X129540000Y-69771500D02*
G01*
X129032000Y-69517500D01*
X130048000Y-69517500D01*
X129540000Y-69771500D01*
G37*
%TD*%
M02*
