%TF.GenerationSoftware,KiCad,Pcbnew,7.0.6-0*%
%TF.CreationDate,2023-08-22T23:55:56+02:00*%
%TF.ProjectId,tannenbaum,74616e6e-656e-4626-9175-6d2e6b696361,2.0*%
%TF.SameCoordinates,Original*%
%TF.FileFunction,Paste,Bot*%
%TF.FilePolarity,Positive*%
%FSLAX46Y46*%
G04 Gerber Fmt 4.6, Leading zero omitted, Abs format (unit mm)*
G04 Created by KiCad (PCBNEW 7.0.6-0) date 2023-08-22 23:55:56*
%MOMM*%
%LPD*%
G01*
G04 APERTURE LIST*
G04 Aperture macros list*
%AMRoundRect*
0 Rectangle with rounded corners*
0 $1 Rounding radius*
0 $2 $3 $4 $5 $6 $7 $8 $9 X,Y pos of 4 corners*
0 Add a 4 corners polygon primitive as box body*
4,1,4,$2,$3,$4,$5,$6,$7,$8,$9,$2,$3,0*
0 Add four circle primitives for the rounded corners*
1,1,$1+$1,$2,$3*
1,1,$1+$1,$4,$5*
1,1,$1+$1,$6,$7*
1,1,$1+$1,$8,$9*
0 Add four rect primitives between the rounded corners*
20,1,$1+$1,$2,$3,$4,$5,0*
20,1,$1+$1,$4,$5,$6,$7,0*
20,1,$1+$1,$6,$7,$8,$9,0*
20,1,$1+$1,$8,$9,$2,$3,0*%
G04 Aperture macros list end*
%ADD10RoundRect,0.150000X0.150000X-0.825000X0.150000X0.825000X-0.150000X0.825000X-0.150000X-0.825000X0*%
%ADD11RoundRect,0.150000X-0.512500X-0.150000X0.512500X-0.150000X0.512500X0.150000X-0.512500X0.150000X0*%
%ADD12RoundRect,0.250000X0.450000X-0.262500X0.450000X0.262500X-0.450000X0.262500X-0.450000X-0.262500X0*%
%ADD13R,1.200000X1.200000*%
%ADD14R,1.500000X1.600000*%
%ADD15RoundRect,0.200000X-0.200000X-0.275000X0.200000X-0.275000X0.200000X0.275000X-0.200000X0.275000X0*%
%ADD16RoundRect,0.200000X0.200000X0.275000X-0.200000X0.275000X-0.200000X-0.275000X0.200000X-0.275000X0*%
%ADD17R,1.600000X1.500000*%
%ADD18RoundRect,0.250000X-0.450000X0.262500X-0.450000X-0.262500X0.450000X-0.262500X0.450000X0.262500X0*%
%ADD19R,1.300000X0.600000*%
%ADD20RoundRect,0.200000X-0.275000X0.200000X-0.275000X-0.200000X0.275000X-0.200000X0.275000X0.200000X0*%
%ADD21RoundRect,0.250000X-0.262500X-0.450000X0.262500X-0.450000X0.262500X0.450000X-0.262500X0.450000X0*%
%ADD22RoundRect,0.225000X-0.225000X-0.375000X0.225000X-0.375000X0.225000X0.375000X-0.225000X0.375000X0*%
%ADD23RoundRect,0.225000X0.225000X0.250000X-0.225000X0.250000X-0.225000X-0.250000X0.225000X-0.250000X0*%
%ADD24RoundRect,0.250000X-0.475000X0.250000X-0.475000X-0.250000X0.475000X-0.250000X0.475000X0.250000X0*%
%ADD25RoundRect,0.225000X0.250000X-0.225000X0.250000X0.225000X-0.250000X0.225000X-0.250000X-0.225000X0*%
%ADD26RoundRect,0.225000X-0.250000X0.225000X-0.250000X-0.225000X0.250000X-0.225000X0.250000X0.225000X0*%
%ADD27R,2.540000X1.270000*%
%ADD28R,1.200000X2.500000*%
%ADD29RoundRect,0.250000X1.500000X0.550000X-1.500000X0.550000X-1.500000X-0.550000X1.500000X-0.550000X0*%
%ADD30R,0.600000X1.300000*%
G04 APERTURE END LIST*
D10*
%TO.C,U1*%
X73025000Y-132080000D03*
X71755000Y-132080000D03*
X70485000Y-132080000D03*
X69215000Y-132080000D03*
X69215000Y-127130000D03*
X70485000Y-127130000D03*
X71755000Y-127130000D03*
X73025000Y-127130000D03*
%TD*%
D11*
%TO.C,U2*%
X71120000Y-115570000D03*
X71120000Y-113670000D03*
X68845000Y-113670000D03*
X68845000Y-114620000D03*
X68845000Y-115570000D03*
%TD*%
D12*
%TO.C,R17*%
X68580000Y-69930000D03*
X68580000Y-71755000D03*
%TD*%
D13*
%TO.C,R16*%
X211665000Y-97885000D03*
D14*
X214915000Y-96885000D03*
D13*
X211665000Y-95885000D03*
%TD*%
D15*
%TO.C,R15*%
X207900000Y-96520000D03*
X209550000Y-96520000D03*
%TD*%
D13*
%TO.C,R14*%
X139065000Y-70485000D03*
D14*
X135815000Y-69485000D03*
D13*
X139065000Y-68485000D03*
%TD*%
D16*
%TO.C,R13*%
X142685000Y-69215000D03*
X144335000Y-69215000D03*
%TD*%
D13*
%TO.C,R12*%
X84725000Y-117580000D03*
D17*
X85725000Y-120830000D03*
D13*
X86725000Y-117580000D03*
%TD*%
D18*
%TO.C,R10*%
X78105000Y-123825000D03*
X78105000Y-122000000D03*
%TD*%
D13*
%TO.C,R9*%
X152035000Y-93875000D03*
D17*
X153035000Y-90625000D03*
D13*
X154035000Y-93875000D03*
%TD*%
D16*
%TO.C,R8*%
X157100000Y-92710000D03*
X158750000Y-92710000D03*
%TD*%
D13*
%TO.C,R7*%
X126095000Y-132820000D03*
D17*
X125095000Y-136070000D03*
D13*
X124095000Y-132820000D03*
%TD*%
%TO.C,R5*%
X161925000Y-86995000D03*
D14*
X158675000Y-85995000D03*
D13*
X161925000Y-84995000D03*
%TD*%
D19*
%TO.C,Q8*%
X63280000Y-72075000D03*
X63280000Y-73975000D03*
X61180000Y-73025000D03*
%TD*%
%TO.C,Q7*%
X207645000Y-101600000D03*
X207645000Y-99700000D03*
X209745000Y-100650000D03*
%TD*%
D20*
%TO.C,R11*%
X85090000Y-113475000D03*
X85090000Y-115125000D03*
%TD*%
%TO.C,R6*%
X121285000Y-132905000D03*
X121285000Y-131255000D03*
%TD*%
D12*
%TO.C,R3*%
X66675000Y-129897500D03*
X66675000Y-131722500D03*
%TD*%
D21*
%TO.C,R2*%
X71040000Y-120650000D03*
X69215000Y-120650000D03*
%TD*%
D12*
%TO.C,R1*%
X70485000Y-136247500D03*
X70485000Y-138072500D03*
%TD*%
D22*
%TO.C,D1*%
X72135000Y-123190000D03*
X68835000Y-123190000D03*
%TD*%
D23*
%TO.C,C6*%
X68440000Y-118110000D03*
X69990000Y-118110000D03*
%TD*%
D24*
%TO.C,C5*%
X74930000Y-117470000D03*
X74930000Y-115570000D03*
%TD*%
%TO.C,C2*%
X74930000Y-127000000D03*
X74930000Y-125100000D03*
%TD*%
D25*
%TO.C,C1*%
X66535000Y-124320000D03*
X66535000Y-125870000D03*
%TD*%
D26*
%TO.C,C4*%
X64135000Y-111620000D03*
X64135000Y-113170000D03*
%TD*%
D27*
%TO.C,BT1*%
X95982500Y-99520000D03*
X95982500Y-87170000D03*
%TD*%
D28*
%TO.C,SW1*%
X73105000Y-68580000D03*
X75605000Y-68580000D03*
X78105000Y-68580000D03*
X73105000Y-74080000D03*
X75605000Y-74080000D03*
X78105000Y-74080000D03*
%TD*%
D19*
%TO.C,Q4*%
X80010000Y-124460000D03*
X82110000Y-125410000D03*
X82110000Y-123510000D03*
%TD*%
D16*
%TO.C,R4*%
X164910000Y-85090000D03*
X166560000Y-85090000D03*
%TD*%
D29*
%TO.C,C3*%
X51910000Y-116840000D03*
X57310000Y-116840000D03*
%TD*%
D30*
%TO.C,Q5*%
X91440000Y-116205000D03*
X89540000Y-116205000D03*
X90490000Y-114105000D03*
%TD*%
D19*
%TO.C,Q3*%
X160435000Y-96740000D03*
X158335000Y-95790000D03*
X158335000Y-97690000D03*
%TD*%
%TO.C,Q1*%
X172500000Y-85725000D03*
X170400000Y-84775000D03*
X170400000Y-86675000D03*
%TD*%
D30*
%TO.C,Q2*%
X124460000Y-127220000D03*
X123510000Y-129320000D03*
X125410000Y-129320000D03*
%TD*%
%TO.C,Q6*%
X143195000Y-74490000D03*
X144145000Y-72390000D03*
X142245000Y-72390000D03*
%TD*%
M02*
