M48
; DRILL file {KiCad 7.0.6-0} date 2023 August 23, Wednesday 00:03:37
; FORMAT={-:-/ absolute / inch / decimal}
; #@! TF.CreationDate,2023-08-23T00:03:37+02:00
; #@! TF.GenerationSoftware,Kicad,Pcbnew,7.0.6-0
; #@! TF.FileFunction,Plated,1,2,PTH
FMAT,2
INCH
; #@! TA.AperFunction,Plated,PTH,ViaDrill
T1C0.0157
%
G90
G05
T1
X2.575Y-1.075
X2.725Y-1.175
X3.25Y-5.15
X3.3Y-2.225
X3.325Y-5.125
X3.3715Y-4.3285
X3.375Y-2.325
X3.4Y-4.975
X3.4Y-5.025
X3.425Y-5.125
X3.475Y-4.225
X3.475Y-4.4
X3.55Y-4.325
X3.575Y-3.35
X3.575Y-3.5
X4.15Y-3.425
X4.2Y-3.5119
X4.7Y-4.875
X4.775Y-4.15
X4.8Y-4.775
X4.8Y-4.9631
X4.875Y-4.25
X5.025Y-2.675
X5.125Y-2.825
X5.725Y-4.5
X5.775Y-4.325
X5.8Y-2.975
X5.85Y-3.075
X6.375Y-3.875
X6.475Y-3.8
X6.85Y-4.45
X6.875Y-4.3
X6.875Y-4.5
X6.925Y-3.35
X6.975Y-3.275
X7.275Y-4.05
X7.3Y-2.975
X7.35Y-4.175
X7.425Y-3.1
X8.6Y-4.0
X8.675Y-3.875
X8.775Y-3.925
X8.9Y-3.7
X8.925Y-3.575
T0
M30
